<mxfile host="65bd71144e" pages="2">
    <diagram name="Steppers" id="15MNASfSljBvQMLX-rD_">
        <mxGraphModel dx="1002" dy="563" grid="1" gridSize="10" guides="1" tooltips="1" connect="1" arrows="1" fold="1" page="1" pageScale="1" pageWidth="827" pageHeight="1169" math="0" shadow="0">
            <root>
                <mxCell id="0"/>
                <mxCell id="1" parent="0"/>
                <mxCell id="Z48tQkrX5CJKN6qc_FY0-9" value="" style="edgeStyle=orthogonalEdgeStyle;rounded=0;orthogonalLoop=1;jettySize=auto;html=1;" parent="1" source="Z48tQkrX5CJKN6qc_FY0-1" target="Z48tQkrX5CJKN6qc_FY0-2" edge="1">
                    <mxGeometry relative="1" as="geometry"/>
                </mxCell>
                <UserObject label="Indentify" link="data:page/id,v3buDUtBPuDCYTwkxDMz" id="Z48tQkrX5CJKN6qc_FY0-1">
                    <mxCell style="ellipse;whiteSpace=wrap;html=1;aspect=fixed;fillColor=#f5f5f5;fontColor=#333333;strokeColor=#666666;" parent="1" vertex="1">
                        <mxGeometry x="30" y="240" width="100" height="100" as="geometry"/>
                    </mxCell>
                </UserObject>
                <mxCell id="Z48tQkrX5CJKN6qc_FY0-10" value="" style="edgeStyle=orthogonalEdgeStyle;rounded=0;orthogonalLoop=1;jettySize=auto;html=1;" parent="1" source="Z48tQkrX5CJKN6qc_FY0-2" target="Z48tQkrX5CJKN6qc_FY0-3" edge="1">
                    <mxGeometry relative="1" as="geometry"/>
                </mxCell>
                <UserObject label="Inherent Assessment" link="data:page/id,8DWoH876BlVttrcYly3p" id="Z48tQkrX5CJKN6qc_FY0-2">
                    <mxCell style="ellipse;whiteSpace=wrap;html=1;aspect=fixed;fillColor=#f8cecc;strokeColor=#b85450;" parent="1" vertex="1">
                        <mxGeometry x="220" y="240" width="100" height="100" as="geometry"/>
                    </mxCell>
                </UserObject>
                <mxCell id="Z48tQkrX5CJKN6qc_FY0-11" value="" style="edgeStyle=orthogonalEdgeStyle;rounded=0;orthogonalLoop=1;jettySize=auto;html=1;" parent="1" source="Z48tQkrX5CJKN6qc_FY0-3" target="Z48tQkrX5CJKN6qc_FY0-4" edge="1">
                    <mxGeometry relative="1" as="geometry"/>
                </mxCell>
                <mxCell id="Z48tQkrX5CJKN6qc_FY0-3" value="Control Assessment" style="ellipse;whiteSpace=wrap;html=1;aspect=fixed;fillColor=#d5e8d4;strokeColor=#82b366;" parent="1" vertex="1">
                    <mxGeometry x="440" y="240" width="100" height="100" as="geometry"/>
                </mxCell>
                <mxCell id="Z48tQkrX5CJKN6qc_FY0-4" value="Risk Monitoring" style="ellipse;whiteSpace=wrap;html=1;aspect=fixed;fillColor=#ffe6cc;strokeColor=#d79b00;" parent="1" vertex="1">
                    <mxGeometry x="690" y="240" width="100" height="100" as="geometry"/>
                </mxCell>
                <mxCell id="75Bqbwj7MVuNlZierDvX-2" value="&lt;font style=&quot;font-size: 22px;&quot;&gt;&lt;b&gt;Process of Risk Assessment&lt;/b&gt;&lt;/font&gt;" style="text;html=1;align=center;verticalAlign=middle;resizable=0;points=[];autosize=1;strokeColor=none;fillColor=none;" parent="1" vertex="1">
                    <mxGeometry x="9" y="90" width="320" height="40" as="geometry"/>
                </mxCell>
            </root>
        </mxGraphModel>
    </diagram>
    <diagram id="v3buDUtBPuDCYTwkxDMz" name="Risk Identification Stage">
        <mxGraphModel dx="1002" dy="563" grid="1" gridSize="10" guides="1" tooltips="1" connect="1" arrows="1" fold="1" page="1" pageScale="1" pageWidth="827" pageHeight="1169" math="0" shadow="0">
            <root>
                <mxCell id="0"/>
                <mxCell id="1" parent="0"/>
                <mxCell id="fMBHeTYr3n7B6SUOA5rN-1" value="" style="swimlane;startSize=0;fontSize=24;" parent="1" vertex="1">
                    <mxGeometry x="90" y="50" width="780" height="470" as="geometry">
                        <mxRectangle x="40" y="80" width="50" height="40" as="alternateBounds"/>
                    </mxGeometry>
                </mxCell>
                <mxCell id="BUL69KtetxcrcClshWOw-1" value="&lt;div style=&quot;&quot;&gt;&lt;span style=&quot;font-size: 12px; background-color: initial;&quot;&gt;Entiy Dropdown&lt;/span&gt;&lt;/div&gt;" style="rounded=1;whiteSpace=wrap;html=1;fontSize=24;align=center;" parent="fMBHeTYr3n7B6SUOA5rN-1" vertex="1">
                    <mxGeometry x="30" y="40" width="140" height="40" as="geometry"/>
                </mxCell>
                <mxCell id="BUL69KtetxcrcClshWOw-7" value="Department Dropdown" style="rounded=1;whiteSpace=wrap;html=1;fontSize=12;" parent="fMBHeTYr3n7B6SUOA5rN-1" vertex="1">
                    <mxGeometry x="360" y="40" width="134" height="40" as="geometry"/>
                </mxCell>
                <mxCell id="BUL69KtetxcrcClshWOw-6" value="Group Dropdown" style="rounded=1;whiteSpace=wrap;html=1;fontSize=12;" parent="fMBHeTYr3n7B6SUOA5rN-1" vertex="1">
                    <mxGeometry x="190" y="40" width="144" height="40" as="geometry"/>
                </mxCell>
                <mxCell id="BUL69KtetxcrcClshWOw-8" value="Unit Dropdown&lt;br&gt;(if any)" style="rounded=1;whiteSpace=wrap;html=1;fontSize=12;" parent="fMBHeTYr3n7B6SUOA5rN-1" vertex="1">
                    <mxGeometry x="520" y="40" width="134" height="40" as="geometry"/>
                </mxCell>
                <mxCell id="-Z-RP1oG43ZO77pvYwXT-1" style="edgeStyle=none;html=1;entryX=0.25;entryY=0;entryDx=0;entryDy=0;" parent="fMBHeTYr3n7B6SUOA5rN-1" target="sW02iLDB-YwF7kZwF7Fw-2" edge="1">
                    <mxGeometry relative="1" as="geometry">
                        <mxPoint x="65" y="169" as="sourcePoint"/>
                    </mxGeometry>
                </mxCell>
                <UserObject label="&lt;b&gt;When the filter button is clicked, a modal popup will appear displaying all associated risks based on the chosen Entity, Group, Department, and Unit. &lt;br&gt;Users will have the option to add a new risk from this modal. Any newly added risk will undergo approval from the Chief Risk Officer (CRO) or Risk Head. Once approved, the risk will be activated and available for use in any assessment.&lt;/b&gt;" link="data:page/id,BjAR7A-LRiYmfCkJhe-3" id="BUL69KtetxcrcClshWOw-10">
                    <mxCell style="rounded=0;whiteSpace=wrap;html=1;fontSize=12;fillColor=#dae8fc;gradientColor=#7ea6e0;strokeColor=#6c8ebf;align=left;" parent="fMBHeTYr3n7B6SUOA5rN-1" vertex="1">
                        <mxGeometry x="30" y="110" width="720" height="60" as="geometry"/>
                    </mxCell>
                </UserObject>
                <mxCell id="sW02iLDB-YwF7kZwF7Fw-1" style="edgeStyle=none;html=1;fontSize=16;entryX=0.946;entryY=-0.002;entryDx=0;entryDy=0;entryPerimeter=0;" parent="fMBHeTYr3n7B6SUOA5rN-1" source="BUL69KtetxcrcClshWOw-12" target="BUL69KtetxcrcClshWOw-10" edge="1">
                    <mxGeometry relative="1" as="geometry">
                        <mxPoint x="710" y="100" as="targetPoint"/>
                    </mxGeometry>
                </mxCell>
                <mxCell id="BUL69KtetxcrcClshWOw-12" value="Filter Risk" style="rounded=1;whiteSpace=wrap;html=1;fontSize=12;fillColor=#dae8fc;strokeColor=#6c8ebf;" parent="fMBHeTYr3n7B6SUOA5rN-1" vertex="1">
                    <mxGeometry x="670" y="40" width="80" height="40" as="geometry"/>
                </mxCell>
                <mxCell id="sW02iLDB-YwF7kZwF7Fw-2" value="Choosen Risk (R1)" style="rounded=1;whiteSpace=wrap;html=1;fontSize=14;" parent="fMBHeTYr3n7B6SUOA5rN-1" vertex="1">
                    <mxGeometry x="30" y="190" width="140" height="40" as="geometry"/>
                </mxCell>
                <mxCell id="sW02iLDB-YwF7kZwF7Fw-4" value="System generated Risk Assesment #Ref ID **" style="rounded=1;whiteSpace=wrap;html=1;fontSize=14;" parent="fMBHeTYr3n7B6SUOA5rN-1" vertex="1">
                    <mxGeometry x="190" y="190" width="380" height="40" as="geometry"/>
                </mxCell>
                <mxCell id="sW02iLDB-YwF7kZwF7Fw-5" value="**Sample Risk Reference ID: TF-RS-001-EM-CCNV-CCB&lt;br&gt;&amp;nbsp;Prefix: TF-RS + {Numeric value} + {Entity Name's first two letters} + {first letter of every word in the Group name} + {first letter of every word in the Department}" style="rounded=0;whiteSpace=wrap;html=1;fontSize=14;fillColor=#dae8fc;gradientColor=#7ea6e0;strokeColor=#6c8ebf;align=left;" parent="fMBHeTYr3n7B6SUOA5rN-1" vertex="1">
                    <mxGeometry x="30" y="250" width="720" height="60" as="geometry"/>
                </mxCell>
                <mxCell id="FnmGx0jHMM8Vh_3Tbjop-1" value="Risk Type Dropdown" style="rounded=1;whiteSpace=wrap;html=1;fontSize=14;" parent="fMBHeTYr3n7B6SUOA5rN-1" vertex="1">
                    <mxGeometry x="597" y="190" width="150" height="40" as="geometry"/>
                </mxCell>
                <mxCell id="FnmGx0jHMM8Vh_3Tbjop-6" value="Sub-Process Dropdown" style="rounded=1;whiteSpace=wrap;html=1;fontSize=14;" parent="fMBHeTYr3n7B6SUOA5rN-1" vertex="1">
                    <mxGeometry x="220" y="330" width="230" height="40" as="geometry"/>
                </mxCell>
                <mxCell id="FnmGx0jHMM8Vh_3Tbjop-5" value="Process Dropdown" style="rounded=1;whiteSpace=wrap;html=1;fontSize=14;" parent="fMBHeTYr3n7B6SUOA5rN-1" vertex="1">
                    <mxGeometry x="30" y="330" width="170" height="40" as="geometry"/>
                </mxCell>
                <mxCell id="FnmGx0jHMM8Vh_3Tbjop-9" value="Assesment Date Datepicker" style="rounded=1;whiteSpace=wrap;html=1;fontSize=14;" parent="fMBHeTYr3n7B6SUOA5rN-1" vertex="1">
                    <mxGeometry x="470" y="330" width="280" height="40" as="geometry"/>
                </mxCell>
                <mxCell id="Xy54KvV-FAmgp7EFjI-Z-1" value="Save" style="rounded=1;whiteSpace=wrap;html=1;labelBorderColor=none;fontSize=14;fillColor=#d5e8d4;gradientColor=#97d077;strokeColor=#82b366;" parent="fMBHeTYr3n7B6SUOA5rN-1" vertex="1">
                    <mxGeometry x="30" y="390" width="120" height="40" as="geometry"/>
                </mxCell>
                <mxCell id="uFeJdkBYWcN1V2fYIJUP-1" value="&lt;b&gt;&lt;font style=&quot;font-size: 24px;&quot;&gt;Identify&lt;/font&gt;&lt;/b&gt;" style="text;html=1;align=center;verticalAlign=middle;resizable=0;points=[];autosize=1;strokeColor=none;fillColor=none;" parent="1" vertex="1">
                    <mxGeometry x="80" width="110" height="40" as="geometry"/>
                </mxCell>
            </root>
        </mxGraphModel>
    </diagram>
    <diagram id="8DWoH876BlVttrcYly3p" name="Inherent Risk Assessment Stage">
        <mxGraphModel dx="954" dy="536" grid="1" gridSize="10" guides="1" tooltips="1" connect="1" arrows="1" fold="1" page="1" pageScale="1" pageWidth="850" pageHeight="1100" math="0" shadow="0">
            <root>
                <mxCell id="0"/>
                <mxCell id="1" parent="0"/>
                <mxCell id="t8OvggcV_xyT3Mdwyf7E-21" value="&lt;b&gt;&lt;font style=&quot;font-size: 18px;&quot;&gt;Inherent Risk As&lt;/font&gt;&lt;font style=&quot;font-size: 16px;&quot;&gt;sessment&amp;nbsp;&lt;/font&gt;&lt;/b&gt;" style="text;html=1;align=center;verticalAlign=middle;resizable=0;points=[];autosize=1;strokeColor=none;fillColor=none;" parent="1" vertex="1">
                    <mxGeometry x="20" y="25" width="240" height="40" as="geometry"/>
                </mxCell>
                <UserObject label="" link="data:page/id,C1a11JUAbjGNOv5UAI7T" id="Jev5esE0N9D00koz3m03-2">
                    <mxCell style="swimlane;startSize=0;fontSize=24;fillColor=#1ba1e2;fontColor=#ffffff;strokeColor=#006EAF;" vertex="1" parent="1">
                        <mxGeometry x="20" y="65" width="780" height="805" as="geometry">
                            <mxRectangle x="40" y="80" width="50" height="40" as="alternateBounds"/>
                        </mxGeometry>
                    </mxCell>
                </UserObject>
                <mxCell id="Jev5esE0N9D00koz3m03-19" value="Will be displaying current Risk Assesment #Ref ID TF-RS-001-EM-CCNV-CCB" style="rounded=0;whiteSpace=wrap;html=1;fontSize=14;fillColor=#d5e8d4;strokeColor=#82b366;align=left;" vertex="1" parent="Jev5esE0N9D00koz3m03-2">
                    <mxGeometry x="30" y="25" width="720" height="45" as="geometry"/>
                </mxCell>
                <mxCell id="ZxYDIQD6CghkJkgofABi-2" value="&amp;nbsp; &amp;nbsp; &amp;nbsp;Risk&amp;nbsp; Assesment" style="swimlane;whiteSpace=wrap;html=1;startSize=23;align=left;" vertex="1" parent="Jev5esE0N9D00koz3m03-2">
                    <mxGeometry x="30" y="85" width="720" height="145" as="geometry">
                        <mxRectangle x="30" y="85" width="70" height="30" as="alternateBounds"/>
                    </mxGeometry>
                </mxCell>
                <mxCell id="Jev5esE0N9D00koz3m03-14" value="Risk Category Dropdown" style="rounded=1;whiteSpace=wrap;html=1;fontSize=14;" vertex="1" parent="ZxYDIQD6CghkJkgofABi-2">
                    <mxGeometry x="10" y="30" width="150" height="40" as="geometry"/>
                </mxCell>
                <mxCell id="ZxYDIQD6CghkJkgofABi-5" value="Risk Sub - Category Dropdown" style="rounded=1;whiteSpace=wrap;html=1;fontSize=14;" vertex="1" parent="ZxYDIQD6CghkJkgofABi-2">
                    <mxGeometry x="180" y="30" width="150" height="40" as="geometry"/>
                </mxCell>
                <mxCell id="ZxYDIQD6CghkJkgofABi-24" value="Risk Factor Dropdown" style="rounded=1;whiteSpace=wrap;html=1;fontSize=14;" vertex="1" parent="ZxYDIQD6CghkJkgofABi-2">
                    <mxGeometry x="540" y="30" width="150" height="40" as="geometry"/>
                </mxCell>
                <mxCell id="ZxYDIQD6CghkJkgofABi-23" value="Risk Source Dropdown" style="rounded=1;whiteSpace=wrap;html=1;fontSize=14;" vertex="1" parent="ZxYDIQD6CghkJkgofABi-2">
                    <mxGeometry x="360" y="30" width="150" height="40" as="geometry"/>
                </mxCell>
                <mxCell id="ZxYDIQD6CghkJkgofABi-25" value="Risk Owner in Readonly Mode" style="rounded=0;whiteSpace=wrap;html=1;fillColor=#f8cecc;strokeColor=#b85450;" vertex="1" parent="ZxYDIQD6CghkJkgofABi-2">
                    <mxGeometry x="10" y="91.25" width="150" height="38.75" as="geometry"/>
                </mxCell>
                <mxCell id="ZxYDIQD6CghkJkgofABi-26" value="Risk Likelihood Dropdown" style="rounded=1;whiteSpace=wrap;html=1;fontSize=14;" vertex="1" parent="ZxYDIQD6CghkJkgofABi-2">
                    <mxGeometry x="180" y="91.25" width="150" height="40" as="geometry"/>
                </mxCell>
                <mxCell id="ZxYDIQD6CghkJkgofABi-28" value="Fiscal year Dropdown" style="rounded=1;whiteSpace=wrap;html=1;fontSize=14;" vertex="1" parent="ZxYDIQD6CghkJkgofABi-2">
                    <mxGeometry x="540" y="87.5" width="150" height="40" as="geometry"/>
                </mxCell>
                <mxCell id="ZxYDIQD6CghkJkgofABi-27" value="Impacted Parties Drop down" style="rounded=1;whiteSpace=wrap;html=1;fontSize=14;" vertex="1" parent="ZxYDIQD6CghkJkgofABi-2">
                    <mxGeometry x="360" y="91.25" width="150" height="38.75" as="geometry"/>
                </mxCell>
                <mxCell id="ZxYDIQD6CghkJkgofABi-31" value="&amp;nbsp; &amp;nbsp; &amp;nbsp; Tag Impacted Category" style="swimlane;whiteSpace=wrap;html=1;align=left;startSize=35;" vertex="1" parent="Jev5esE0N9D00koz3m03-2">
                    <mxGeometry x="30" y="255" width="720" height="220" as="geometry"/>
                </mxCell>
                <mxCell id="ZxYDIQD6CghkJkgofABi-32" value="Assets" style="childLayout=tableLayout;recursiveResize=0;strokeColor=#98bf21;fillColor=#A7C942;shadow=1;" vertex="1" parent="ZxYDIQD6CghkJkgofABi-31">
                    <mxGeometry x="10" y="50" width="690" height="155" as="geometry"/>
                </mxCell>
                <mxCell id="ZxYDIQD6CghkJkgofABi-33" style="shape=tableRow;horizontal=0;startSize=0;swimlaneHead=0;swimlaneBody=0;top=0;left=0;bottom=0;right=0;dropTarget=0;collapsible=0;recursiveResize=0;expand=0;fontStyle=0;strokeColor=inherit;fillColor=#ffffff;" vertex="1" parent="ZxYDIQD6CghkJkgofABi-32">
                    <mxGeometry width="690" height="33" as="geometry"/>
                </mxCell>
                <mxCell id="ZxYDIQD6CghkJkgofABi-34" value="Impacted Category" style="connectable=0;recursiveResize=0;strokeColor=inherit;fillColor=#A7C942;align=center;fontStyle=1;fontColor=#FFFFFF;html=1;" vertex="1" parent="ZxYDIQD6CghkJkgofABi-33">
                    <mxGeometry width="229" height="33" as="geometry">
                        <mxRectangle width="229" height="33" as="alternateBounds"/>
                    </mxGeometry>
                </mxCell>
                <mxCell id="ZxYDIQD6CghkJkgofABi-35" value="Impacted Sub-Category" style="connectable=0;recursiveResize=0;strokeColor=inherit;fillColor=#A7C942;align=center;fontStyle=1;fontColor=#FFFFFF;html=1;" vertex="1" parent="ZxYDIQD6CghkJkgofABi-33">
                    <mxGeometry x="229" width="232" height="33" as="geometry">
                        <mxRectangle width="232" height="33" as="alternateBounds"/>
                    </mxGeometry>
                </mxCell>
                <mxCell id="ZxYDIQD6CghkJkgofABi-36" value="Inherent Impact Level" style="connectable=0;recursiveResize=0;strokeColor=inherit;fillColor=#A7C942;align=center;fontStyle=1;fontColor=#FFFFFF;html=1;" vertex="1" parent="ZxYDIQD6CghkJkgofABi-33">
                    <mxGeometry x="461" width="229" height="33" as="geometry">
                        <mxRectangle width="229" height="33" as="alternateBounds"/>
                    </mxGeometry>
                </mxCell>
                <mxCell id="ZxYDIQD6CghkJkgofABi-37" value="" style="shape=tableRow;horizontal=0;startSize=0;swimlaneHead=0;swimlaneBody=0;top=0;left=0;bottom=0;right=0;dropTarget=0;collapsible=0;recursiveResize=0;expand=0;fontStyle=0;strokeColor=inherit;fillColor=#ffffff;" vertex="1" parent="ZxYDIQD6CghkJkgofABi-32">
                    <mxGeometry y="33" width="690" height="27" as="geometry"/>
                </mxCell>
                <mxCell id="ZxYDIQD6CghkJkgofABi-38" value="Financial" style="connectable=0;recursiveResize=0;strokeColor=inherit;fillColor=inherit;align=center;whiteSpace=wrap;html=1;" vertex="1" parent="ZxYDIQD6CghkJkgofABi-37">
                    <mxGeometry width="229" height="27" as="geometry">
                        <mxRectangle width="229" height="27" as="alternateBounds"/>
                    </mxGeometry>
                </mxCell>
                <mxCell id="ZxYDIQD6CghkJkgofABi-39" value="F1" style="connectable=0;recursiveResize=0;strokeColor=inherit;fillColor=inherit;align=center;whiteSpace=wrap;html=1;" vertex="1" parent="ZxYDIQD6CghkJkgofABi-37">
                    <mxGeometry x="229" width="232" height="27" as="geometry">
                        <mxRectangle width="232" height="27" as="alternateBounds"/>
                    </mxGeometry>
                </mxCell>
                <mxCell id="ZxYDIQD6CghkJkgofABi-40" value="Minor" style="connectable=0;recursiveResize=0;strokeColor=inherit;fillColor=inherit;align=center;whiteSpace=wrap;html=1;" vertex="1" parent="ZxYDIQD6CghkJkgofABi-37">
                    <mxGeometry x="461" width="229" height="27" as="geometry">
                        <mxRectangle width="229" height="27" as="alternateBounds"/>
                    </mxGeometry>
                </mxCell>
                <mxCell id="ZxYDIQD6CghkJkgofABi-41" value="" style="shape=tableRow;horizontal=0;startSize=0;swimlaneHead=0;swimlaneBody=0;top=0;left=0;bottom=0;right=0;dropTarget=0;collapsible=0;recursiveResize=0;expand=0;fontStyle=1;strokeColor=inherit;fillColor=#EAF2D3;" vertex="1" parent="ZxYDIQD6CghkJkgofABi-32">
                    <mxGeometry y="60" width="690" height="31" as="geometry"/>
                </mxCell>
                <mxCell id="ZxYDIQD6CghkJkgofABi-42" value="Operational" style="connectable=0;recursiveResize=0;strokeColor=inherit;fillColor=inherit;whiteSpace=wrap;html=1;" vertex="1" parent="ZxYDIQD6CghkJkgofABi-41">
                    <mxGeometry width="229" height="31" as="geometry">
                        <mxRectangle width="229" height="31" as="alternateBounds"/>
                    </mxGeometry>
                </mxCell>
                <mxCell id="ZxYDIQD6CghkJkgofABi-43" value="O1" style="connectable=0;recursiveResize=0;strokeColor=inherit;fillColor=inherit;whiteSpace=wrap;html=1;" vertex="1" parent="ZxYDIQD6CghkJkgofABi-41">
                    <mxGeometry x="229" width="232" height="31" as="geometry">
                        <mxRectangle width="232" height="31" as="alternateBounds"/>
                    </mxGeometry>
                </mxCell>
                <mxCell id="ZxYDIQD6CghkJkgofABi-44" value="Major" style="connectable=0;recursiveResize=0;strokeColor=inherit;fillColor=inherit;whiteSpace=wrap;html=1;" vertex="1" parent="ZxYDIQD6CghkJkgofABi-41">
                    <mxGeometry x="461" width="229" height="31" as="geometry">
                        <mxRectangle width="229" height="31" as="alternateBounds"/>
                    </mxGeometry>
                </mxCell>
                <mxCell id="ZxYDIQD6CghkJkgofABi-45" value="" style="shape=tableRow;horizontal=0;startSize=0;swimlaneHead=0;swimlaneBody=0;top=0;left=0;bottom=0;right=0;dropTarget=0;collapsible=0;recursiveResize=0;expand=0;fontStyle=0;strokeColor=inherit;fillColor=#ffffff;" vertex="1" parent="ZxYDIQD6CghkJkgofABi-32">
                    <mxGeometry y="91" width="690" height="33" as="geometry"/>
                </mxCell>
                <mxCell id="ZxYDIQD6CghkJkgofABi-46" value="Financial" style="connectable=0;recursiveResize=0;strokeColor=inherit;fillColor=inherit;fontStyle=0;align=center;whiteSpace=wrap;html=1;" vertex="1" parent="ZxYDIQD6CghkJkgofABi-45">
                    <mxGeometry width="229" height="33" as="geometry">
                        <mxRectangle width="229" height="33" as="alternateBounds"/>
                    </mxGeometry>
                </mxCell>
                <mxCell id="ZxYDIQD6CghkJkgofABi-47" value="F2" style="connectable=0;recursiveResize=0;strokeColor=inherit;fillColor=inherit;fontStyle=0;align=center;whiteSpace=wrap;html=1;" vertex="1" parent="ZxYDIQD6CghkJkgofABi-45">
                    <mxGeometry x="229" width="232" height="33" as="geometry">
                        <mxRectangle width="232" height="33" as="alternateBounds"/>
                    </mxGeometry>
                </mxCell>
                <mxCell id="ZxYDIQD6CghkJkgofABi-48" value="Minor" style="connectable=0;recursiveResize=0;strokeColor=inherit;fillColor=inherit;fontStyle=0;align=center;whiteSpace=wrap;html=1;" vertex="1" parent="ZxYDIQD6CghkJkgofABi-45">
                    <mxGeometry x="461" width="229" height="33" as="geometry">
                        <mxRectangle width="229" height="33" as="alternateBounds"/>
                    </mxGeometry>
                </mxCell>
                <mxCell id="ZxYDIQD6CghkJkgofABi-49" value="" style="shape=tableRow;horizontal=0;startSize=0;swimlaneHead=0;swimlaneBody=0;top=0;left=0;bottom=0;right=0;dropTarget=0;collapsible=0;recursiveResize=0;expand=0;fontStyle=1;strokeColor=inherit;fillColor=#EAF2D3;" vertex="1" parent="ZxYDIQD6CghkJkgofABi-32">
                    <mxGeometry y="124" width="690" height="31" as="geometry"/>
                </mxCell>
                <mxCell id="ZxYDIQD6CghkJkgofABi-50" value="Reputational" style="connectable=0;recursiveResize=0;strokeColor=inherit;fillColor=inherit;whiteSpace=wrap;html=1;" vertex="1" parent="ZxYDIQD6CghkJkgofABi-49">
                    <mxGeometry width="229" height="31" as="geometry">
                        <mxRectangle width="229" height="31" as="alternateBounds"/>
                    </mxGeometry>
                </mxCell>
                <mxCell id="ZxYDIQD6CghkJkgofABi-51" value="R1" style="connectable=0;recursiveResize=0;strokeColor=inherit;fillColor=inherit;whiteSpace=wrap;html=1;" vertex="1" parent="ZxYDIQD6CghkJkgofABi-49">
                    <mxGeometry x="229" width="232" height="31" as="geometry">
                        <mxRectangle width="232" height="31" as="alternateBounds"/>
                    </mxGeometry>
                </mxCell>
                <mxCell id="ZxYDIQD6CghkJkgofABi-52" value="Sinificant" style="connectable=0;recursiveResize=0;strokeColor=inherit;fillColor=inherit;whiteSpace=wrap;html=1;" vertex="1" parent="ZxYDIQD6CghkJkgofABi-49">
                    <mxGeometry x="461" width="229" height="31" as="geometry">
                        <mxRectangle width="229" height="31" as="alternateBounds"/>
                    </mxGeometry>
                </mxCell>
                <mxCell id="ZxYDIQD6CghkJkgofABi-56" value="Save" style="rounded=1;whiteSpace=wrap;html=1;fillColor=#d5e8d4;strokeColor=#82b366;" vertex="1" parent="ZxYDIQD6CghkJkgofABi-31">
                    <mxGeometry x="640" y="10" width="40" height="20" as="geometry"/>
                </mxCell>
                <mxCell id="ZxYDIQD6CghkJkgofABi-57" value="Add Row" style="rounded=1;whiteSpace=wrap;html=1;fillColor=#1ba1e2;fontColor=#ffffff;strokeColor=#006EAF;" vertex="1" parent="ZxYDIQD6CghkJkgofABi-31">
                    <mxGeometry x="540" y="10" width="90" height="20" as="geometry"/>
                </mxCell>
                <mxCell id="WMBpE-ElsC6XmLQXcFS3-3" value="" style="shape=waypoint;sketch=0;fillStyle=solid;size=6;pointerEvents=1;points=[];fillColor=none;resizable=0;rotatable=0;perimeter=centerPerimeter;snapToPoint=1;" vertex="1" parent="ZxYDIQD6CghkJkgofABi-31">
                    <mxGeometry x="355" y="10" width="20" height="20" as="geometry"/>
                </mxCell>
                <UserObject label="&lt;b&gt;Impact level info&lt;/b&gt;" link="data:page/id,C1a11JUAbjGNOv5UAI7T" id="WMBpE-ElsC6XmLQXcFS3-4">
                    <mxCell style="text;html=1;strokeColor=none;fillColor=none;align=center;verticalAlign=middle;whiteSpace=wrap;rounded=0;" vertex="1" parent="ZxYDIQD6CghkJkgofABi-31">
                        <mxGeometry x="380" y="5" width="105" height="30" as="geometry"/>
                    </mxCell>
                </UserObject>
                <mxCell id="ZxYDIQD6CghkJkgofABi-58" value="Risk Implact Description (Optional)" style="rounded=1;whiteSpace=wrap;html=1;" vertex="1" parent="Jev5esE0N9D00koz3m03-2">
                    <mxGeometry x="30" y="505" width="720" height="185" as="geometry"/>
                </mxCell>
                <mxCell id="WMBpE-ElsC6XmLQXcFS3-2" value="Save" style="rounded=1;whiteSpace=wrap;html=1;fillColor=#d5e8d4;strokeColor=#82b366;" vertex="1" parent="Jev5esE0N9D00koz3m03-2">
                    <mxGeometry x="30" y="715" width="90" height="45" as="geometry"/>
                </mxCell>
            </root>
        </mxGraphModel>
    </diagram>
    <diagram id="C1a11JUAbjGNOv5UAI7T" name="Imapct level">
        <mxGraphModel dx="1002" dy="563" grid="1" gridSize="10" guides="1" tooltips="1" connect="1" arrows="1" fold="1" page="1" pageScale="1" pageWidth="850" pageHeight="1100" math="0" shadow="0">
            <root>
                <mxCell id="0"/>
                <mxCell id="1" parent="0"/>
                <mxCell id="5qDtxqT_W-maYSFxOuYL-11" value="Impact Level" style="swimlane;whiteSpace=wrap;html=1;" vertex="1" parent="1">
                    <mxGeometry x="30" y="40" width="790" height="750" as="geometry"/>
                </mxCell>
                <mxCell id="5qDtxqT_W-maYSFxOuYL-12" value="5 Severe" style="fillColor=#ff0000;strokeColor=#000000;strokeWidth=1;" vertex="1" parent="5qDtxqT_W-maYSFxOuYL-11">
                    <mxGeometry x="30" y="30" width="200" height="120" as="geometry"/>
                </mxCell>
                <mxCell id="5qDtxqT_W-maYSFxOuYL-13" value="Net Financial Impact: Greater than SAR 1M.&#10;Strategic Growth: No growth or Negative growth rate.&#10;Operational Impact: Potential of operational activities not conducted.&#10;Reputation Impact: Significant and sustained adverse international media coverage.&#10;Staff Impact: &gt; 50% of staff significantly affected." style="fillColor=#ff0000;strokeColor=#000000;strokeWidth=1;align=left;" vertex="1" parent="5qDtxqT_W-maYSFxOuYL-11">
                    <mxGeometry x="250" y="30" width="500" height="120" as="geometry"/>
                </mxCell>
                <mxCell id="5qDtxqT_W-maYSFxOuYL-14" value="4 High" style="fillColor=#b22222;strokeColor=#000000;strokeWidth=1;" vertex="1" parent="5qDtxqT_W-maYSFxOuYL-11">
                    <mxGeometry x="30" y="170" width="200" height="120" as="geometry"/>
                </mxCell>
                <mxCell id="5qDtxqT_W-maYSFxOuYL-15" value="Net Financial Impact: Greater than SAR 500K but less than SAR 1M.&#10;Strategic Growth: Significant decline in growth.&#10;Operational Impact: High impact on operational activities.&#10;Reputation Impact: Significant adverse national media coverage.&#10;Staff Impact: 20% to 50% of staff significantly affected." style="fillColor=#b22222;strokeColor=#000000;strokeWidth=1;align=left;" vertex="1" parent="5qDtxqT_W-maYSFxOuYL-11">
                    <mxGeometry x="250" y="170" width="500" height="120" as="geometry"/>
                </mxCell>
                <mxCell id="5qDtxqT_W-maYSFxOuYL-16" value="3 Significant" style="fillColor=#ffa500;strokeColor=#000000;strokeWidth=1;" vertex="1" parent="5qDtxqT_W-maYSFxOuYL-11">
                    <mxGeometry x="30" y="310" width="200" height="120" as="geometry"/>
                </mxCell>
                <mxCell id="5qDtxqT_W-maYSFxOuYL-17" value="Net Financial Impact: SAR 0 but less than SAR 5K.&#10;Strategic Growth: Minimum impact on growth.&#10;Operational Impact: No or immaterial impact on operations.&#10;Reputation Impact: Minimal impact to customer base.&#10;Staff Impact: &lt; 1% of staff affected." style="fillColor=#ffa500;strokeColor=#000000;strokeWidth=1;align=left;" vertex="1" parent="5qDtxqT_W-maYSFxOuYL-11">
                    <mxGeometry x="250" y="310" width="500" height="120" as="geometry"/>
                </mxCell>
                <mxCell id="5qDtxqT_W-maYSFxOuYL-18" value="2 Medium" style="fillColor=#ffff00;strokeColor=#000000;strokeWidth=1;" vertex="1" parent="5qDtxqT_W-maYSFxOuYL-11">
                    <mxGeometry x="30" y="450" width="200" height="120" as="geometry"/>
                </mxCell>
                <mxCell id="5qDtxqT_W-maYSFxOuYL-19" value="Net Financial Impact: SAR 50K but less than SAR 500K.&#10;Strategic Growth: Major decline in growth.&#10;Operational Impact: Moderate impact on operational activities.&#10;Reputation Impact: Adverse media coverage at regional/local level.&#10;Staff Impact: 10% to 20% of staff significantly affected." style="fillColor=#ffff00;strokeColor=#000000;strokeWidth=1;align=left;" vertex="1" parent="5qDtxqT_W-maYSFxOuYL-11">
                    <mxGeometry x="250" y="450" width="500" height="120" as="geometry"/>
                </mxCell>
                <mxCell id="5qDtxqT_W-maYSFxOuYL-20" value="1 Minor" style="fillColor=#00ff00;strokeColor=#000000;strokeWidth=1;" vertex="1" parent="5qDtxqT_W-maYSFxOuYL-11">
                    <mxGeometry x="30" y="590" width="200" height="120" as="geometry"/>
                </mxCell>
                <mxCell id="5qDtxqT_W-maYSFxOuYL-21" value="Net Financial Impact: Greater than SAR 5K but less than SAR 50K.&#10;Strategic Growth: Decline in growth rate.&#10;Operational Impact: Minor impact on operational activities.&#10;Reputation Impact: Impacts to small part of customer base.&#10;Staff Impact: 1% to 10% of staff affected." style="fillColor=#00ff00;strokeColor=#000000;strokeWidth=1;align=left;" vertex="1" parent="5qDtxqT_W-maYSFxOuYL-11">
                    <mxGeometry x="250" y="590" width="500" height="120" as="geometry"/>
                </mxCell>
            </root>
        </mxGraphModel>
    </diagram>
</mxfile>